<svg xmlns="http://www.w3.org/2000/svg" width="148" height="148" viewBox="0 0 148 148" fill="none">
  <circle cx="73.8462" cy="73.8462" r="73.8462" fill="#D9D9D9"/>
  <path d="M80.8341 99.4123C88.1892 92.9322 101.275 79.6931 101.275 67.5439C101.275 60.8217 98.6073 54.3748 93.8591 49.6215C89.1109 44.8682 82.671 42.1978 75.9561 42.1978C69.2411 42.1978 62.8012 44.8682 58.0531 49.6215C53.3049 54.3748 50.6374 60.8217 50.6374 67.5439C50.6374 79.6931 63.7187 92.9322 71.078 99.4123C72.4204 100.612 74.1568 101.275 75.9561 101.275C77.7554 101.275 79.4918 100.612 80.8341 99.4123ZM67.5165 67.5439C67.5165 65.3031 68.4057 63.1542 69.9884 61.5697C71.5711 59.9853 73.7178 59.0952 75.9561 59.0952C78.1944 59.0952 80.341 59.9853 81.9237 61.5697C83.5065 63.1542 84.3956 65.3031 84.3956 67.5439C84.3956 69.7846 83.5065 71.9335 81.9237 73.518C80.341 75.1024 78.1944 75.9925 75.9561 75.9925C73.7178 75.9925 71.5711 75.1024 69.9884 73.518C68.4057 71.9335 67.5165 69.7846 67.5165 67.5439Z" fill="black"/>
</svg>