<svg xmlns="http://www.w3.org/2000/svg" width="161" height="160" viewBox="0 0 161 160" fill="none">
  <circle cx="79.8462" cy="79.8462" r="68.9231" fill="#D9D9D9" stroke="#FFA629" stroke-width="9.84615"/>
  <path d="M100.391 72.8294V76.5126C93.9766 76.9554 91.6163 75.9158 83.0687 69.0356C80.9331 71.2012 78.7975 73.3695 76.2659 75.9401C86.3978 82.2075 81.9581 92.2579 82.6619 101.536H76.215C76.215 97.9635 76.0384 94.4208 76.2659 90.905C76.4853 87.5189 75.4068 85.2183 72.7334 82.9662C62.2054 74.0905 62.2803 73.3452 72.1955 63.5297C79.0036 56.7898 79.8733 57.0112 86.7644 63.284C90.5485 66.7295 95.1756 69.2327 100.394 72.8321L100.391 72.8294Z" fill="black"/>
  <path d="M100.771 80.1607C109.34 80.1553 116.055 86.9707 116.001 95.617C115.953 103.866 109.188 110.814 101.026 110.998C92.8607 111.181 85.4772 103.91 85.3942 95.6035C85.3113 87.1436 92.2585 80.1661 100.771 80.1607ZM111.174 95.4631C111.163 89.4604 106.774 84.9914 100.857 84.9563C94.9267 84.9212 90.412 89.3389 90.3076 95.2714C90.2033 101.344 94.9374 106.172 100.921 106.097C106.785 106.021 111.184 101.46 111.174 95.4631Z" fill="black"/>
  <path d="M58.0895 80.1607C66.5461 80.1229 73.6138 87.1058 73.6192 95.4982C73.6218 103.688 66.1848 111.106 58.0734 111.003C49.9031 110.895 43.1084 104.012 43.0013 95.7331C42.8916 87.0274 49.5071 80.1985 58.0868 80.1607H58.0895ZM47.7943 95.4847C47.7809 101.414 52.2501 106.027 58.0788 106.099C63.7335 106.17 68.6228 101.439 68.778 95.7493C68.9413 89.7196 64.1938 84.9158 58.1136 84.9563C52.2019 84.9968 47.8104 89.4793 47.7943 95.4847Z" fill="black"/>
  <path d="M84.0963 53.7898C84.5593 49.9959 86.6199 47.8465 90.5003 48.0085C94.164 48.1598 96.2085 50.5333 96.2246 54.0058C96.2407 57.8105 93.7973 60.1949 90.0695 60.1598C86.3175 60.1247 84.2542 57.7349 84.0963 53.7871V53.7898Z" fill="black"/>
</svg>