<svg xmlns="http://www.w3.org/2000/svg" width="161" height="160" viewBox="0 0 161 160" fill="none">
  <circle cx="80.8462" cy="79.8462" r="68.9231" fill="#FFFFFF" stroke="#00C2FF" stroke-width="9.84615"/>
  <path d="M57.4045 55.0348C66.3461 54.4243 73.9215 56.3691 79.6719 63.0641C80.4507 63.972 81.2321 64.3325 82.1577 63.3141C88.0786 56.7849 95.5885 54.2243 104.47 55.1138C103.848 51.8374 101.37 50.861 100.151 48.9372C99.0235 47.1556 98.8111 45.4503 100.468 43.945C101.958 42.5923 103.694 42.7739 105.028 44.0555C109.027 47.8977 112.981 51.7952 116.783 55.8322C118.75 57.9218 118.152 60.2298 116.293 62.1456C112.897 65.6457 109.465 69.1143 105.951 72.4907C104.31 74.0671 102.299 75.3803 100.248 73.225C98.3024 71.1801 99.4247 69.2538 100.946 67.4247C102.078 66.0589 103.93 65.2168 104.236 63.1825C93.218 60.4271 84.8927 66.5168 84.7406 77.6014C84.5859 88.8887 84.7039 100.179 84.6724 111.466C84.6671 113.668 84.7694 116.279 82.0555 116.853C77.8338 117.742 77.4011 114.603 77.3854 111.558C77.3277 100.608 77.3933 89.6545 77.3356 78.7041C77.27 66.7089 70.0014 60.8561 57.5147 63.0167C58.3092 65.4352 60.5406 66.5747 61.8937 68.3695C63.0238 69.8669 63.4722 71.4249 62.1926 72.9697C60.7688 74.6882 58.9018 74.7724 57.2734 73.4197C52.7423 69.6564 48.5731 65.4931 44.8444 60.935C43.3366 59.0929 44.0237 57.056 45.5707 55.4559C49.0766 51.8295 52.6139 48.2293 56.2167 44.6976C57.9264 43.0212 59.9795 42.1423 61.9461 44.2239C63.724 46.1082 62.7039 47.903 61.3457 49.611C60.1211 51.1479 58.1859 52.1268 57.4072 55.0427L57.4045 55.0348Z" fill="#444467"/>
</svg>