<svg xmlns="http://www.w3.org/2000/svg" width="148" height="148" viewBox="0 0 148 148" fill="none">
  <circle cx="73.8462" cy="73.8462" r="69.7226" fill="white" stroke="#FF6767" stroke-width="8.24715"/>
  <path d="M80.8212 105.109C80.5944 108.929 80.3889 112.422 80.1834 115.915C79.4789 115.943 78.7771 115.972 78.0726 116C77.8858 112.531 77.7017 109.058 77.4962 105.2H69.7119C69.5011 108.737 69.2849 112.341 69.0714 115.946L67.3128 115.972C67.0353 112.419 66.7604 108.869 66.4616 105.049C64.9138 104.956 63.5875 104.883 62.2639 104.795C57.874 104.496 55.1094 102.275 55.0854 97.9518C54.9679 78.0505 54.984 58.1467 55.0587 38.2455C55.0747 33.8651 57.9327 31.405 62.1438 31.2311C69.6345 30.9249 77.1573 30.9327 84.6507 31.2C89.1659 31.3609 91.9252 34.0026 91.9413 38.5699C92.0053 58.1415 92.04 77.7132 91.9226 97.2823C91.8906 102.771 89.3954 104.403 80.8212 105.109ZM89.5502 68.1272C89.5502 58.8422 89.5075 49.5572 89.5689 40.2722C89.5982 35.7361 87.6261 33.6004 82.7666 33.7639C76.4661 33.9741 70.1469 33.9455 63.8437 33.7717C59.5339 33.6523 57.399 35.5129 57.391 39.5871C57.351 58.4893 57.3643 77.3888 57.375 96.291C57.375 100.331 59.3738 102.389 63.6675 102.337C69.9761 102.262 76.2846 102.384 82.5932 102.306C88.1812 102.236 89.4888 100.97 89.5342 95.4839C89.6116 86.365 89.5555 77.2461 89.5502 68.1272Z" fill="black"/>
  <path d="M73.6107 58.829C79.1427 58.8887 83.3698 63.0304 83.2844 68.3113C83.2017 73.3871 78.5476 77.8246 73.3732 77.7623C68.1722 77.7 63.5715 73.1276 63.6622 68.1062C63.7556 62.924 68.2095 58.7693 73.6107 58.8264V58.829ZM80.7145 68.018C80.6158 64.3149 77.2347 61.1386 73.4453 61.1905C69.3704 61.2476 66.072 64.6756 66.3041 68.6149C66.5283 72.4192 69.7813 75.2296 73.7815 75.0739C77.7257 74.9208 80.8159 71.7756 80.7145 68.018Z" fill="black"/>
  <path d="M83.2657 88.882C83.2951 94.0227 78.7878 98.5199 73.5627 98.564C68.423 98.6081 63.6889 94.0513 63.6596 89.0299C63.6302 83.8944 68.1428 79.4361 73.4106 79.3998C78.7291 79.3635 83.239 83.7023 83.2684 88.882H83.2657ZM73.2932 95.8782C77.1333 95.9638 80.5464 92.9043 80.7199 89.2245C80.9013 85.3631 77.3788 81.808 73.4266 81.8599C69.6372 81.9092 66.3442 85.1504 66.2988 88.8768C66.2535 92.6863 69.3544 95.79 73.2932 95.8782Z" fill="black"/>
  <path d="M73.3946 37.9624C78.8305 37.9209 83.2577 42.0989 83.2817 47.2967C83.3084 52.4634 78.8785 56.8361 73.5761 56.8776C68.2896 56.9191 63.7129 52.5854 63.6516 47.481C63.5902 42.3403 68.0281 37.9988 73.3919 37.9599L73.3946 37.9624ZM73.3626 40.3992C69.3757 40.4874 66.2908 43.5288 66.2908 47.3694C66.2908 51.4618 69.5598 54.4045 73.8856 54.2125C77.9686 54.0308 80.8693 51.0102 80.7092 47.1047C80.5544 43.3082 77.2721 40.3109 73.3599 40.3992H73.3626Z" fill="black"/>
</svg>